<svg xmlns="http://www.w3.org/2000/svg" xmlns:xlink="http://www.w3.org/1999/xlink" id="feedback" shape-rendering="geometricPrecision" text-rendering="geometricPrecision" viewBox="0 0 234 191"><style>@keyframes feedback-mouth__m{0%,42.857143%,50%,92.857143%{d:path(&apos;M92.167334,57.186863C93.629046,64.653678,90.36698,71.306029,82.381135,77.143917&apos;);animation-timing-function:cubic-bezier(.42,0,.58,1)}14.285714%,21.428571%,28.571429%,35.714286%,57.142857%,64.285714%,7.142857%,71.428571%,78.571429%,85.714286%{d:path(&apos;M92.26482,60.172844C92.160767,65.909469,91.270764,69.620572,86.70864,74.963709&apos;);animation-timing-function:cubic-bezier(.42,0,.58,1)}}@keyframes feedback-arm2__m{0%,42.857143%,50%,92.857143%{d:path(&apos;M202.373136,20.508234C207.218705,42.030186,195.060508,62.119648,165.898544,80.77662C122.155597,108.762078,150.355044,132.137165,164.616169,127.226666&apos;);animation-timing-function:cubic-bezier(.42,0,.58,1)}21.428571%,35.714286%,57.142857%,7.142857%,71.428571%,85.714286%{d:path(&apos;M202.373136,20.508234C207.218705,42.030186,202.429659,56.166998,175.310295,77.685431C147.505177,99.74799,168.037852,125.531979,192.408096,117.140639&apos;);animation-timing-function:cubic-bezier(.42,0,.58,1)}14.285714%,28.571429%,64.285714%,78.571429%{d:path(&apos;M202.373136,20.508234C207.218705,42.030186,202.429659,56.166998,175.310295,77.685431C147.505177,99.74799,161.79124,127.791386,186.161484,119.400046&apos;);animation-timing-function:cubic-bezier(.42,0,.58,1)}}#feedback-mouth{animation:feedback-mouth__m 4200ms linear infinite normal forwards}#feedback-arm2{animation:feedback-arm2__m 4200ms linear infinite normal forwards}</style><g id="feedback-feedback"><g id="feedback-kontakt-icon" transform="matrix(-1 0 0 1 234.053 15)"><g id="feedback-arm"><ellipse id="feedback-oval-5-copy-18" fill="none" fill-rule="evenodd" stroke="#CFFF00" stroke-width="6" rx="39.944" ry="40.064" transform="matrix(1 0 0 1 94.893 48.9213)"/><path id="feedback-mouth" fill="none" fill-rule="evenodd" stroke="#CFFF00" stroke-linecap="round" stroke-width="6" d="M92.167334,57.186863C93.629046,64.653678,90.36698,71.306029,82.381135,77.143917" transform="matrix(-0.75471 0.656059 0.656059 0.75471 109.374 -40.8933)"/><path id="feedback-hair" fill="none" stroke="#CFFF00" stroke-width="6.6" d="M95.083494,4.253509C94.550309,6.404433,94.266226,8.65352,94.263729,10.968211C94.247248,26.36034,106.689214,38.824752,122.053656,38.808271" transform="matrix(0.906308 -0.422618 0.422618 0.906308 1.03428 47.7271)"/><path id="feedback-body" fill="none" fill-rule="evenodd" stroke="#CFFF00" stroke-width="6" d="M107.01172,100.648996C114.101257,100.648996,120.519628,103.522598,125.165615,108.168585C129.811602,112.814572,132.685204,119.232943,132.685204,126.32248L132.685204,126.32248L132.685204,172.976546L53.544279,172.976546L53.544279,126.32248C53.544279,119.232943,56.417881,112.814572,61.063868,108.168585C65.709855,103.522598,72.128226,100.648996,79.217763,100.648996L79.217763,100.648996Z"/><path id="feedback-arm-2" fill="none" fill-rule="evenodd" stroke="#CFFF00" stroke-linecap="round" stroke-width="6" d="M38.251715,108.91763C50.641983,134.617394,42.994994,152.233501,15.310749,161.765951" transform="matrix(-0.325568 -0.945519 -0.945519 0.325568 167.277 119.318)"/><path id="feedback-arm2" fill="none" fill-rule="evenodd" stroke="#CFFF00" stroke-linecap="round" stroke-width="6" d="M202.373136,20.508234C207.218705,42.030186,195.060508,62.119648,165.898544,80.77662C122.155597,108.762078,150.355044,132.137165,164.616169,127.226666" transform="matrix(0.325568 0.945519 0.945519 -0.325568 46.9143 -65.7715)"/></g></g></g></svg>